<?xml version="1.0" standalone="no"?>
<!DOCTYPE svg PUBLIC "-//W3C//DTD SVG 20010904//EN"
 "http://www.w3.org/TR/2001/REC-SVG-20010904/DTD/svg10.dtd">
<svg version="1.0" xmlns="http://www.w3.org/2000/svg"
 width="750.000000pt" height="750.000000pt" viewBox="0 0 750.000000 750.000000"
 preserveAspectRatio="xMidYMid meet">

<g transform="translate(0.000000,750.000000) scale(0.100000,-0.100000)"
fill="#000000" stroke="none">
<path d="M2822 6587 c-12 -25 -24 -57 -28 -71 -7 -30 -12 -31 -56 -12 -46 20
-198 40 -239 32 -19 -4 -51 -10 -71 -13 -21 -3 -42 -11 -49 -19 -6 -8 -17 -14
-23 -14 -14 0 -65 -53 -89 -92 -25 -40 -22 -108 6 -149 40 -60 80 -71 247 -70
80 1 161 6 180 11 56 16 67 13 74 -20 3 -17 21 -47 41 -67 32 -33 35 -42 35
-92 0 -50 -4 -62 -40 -110 l-40 -53 0 -112 c0 -138 28 -282 65 -338 23 -35 30
-39 53 -33 15 4 27 7 28 8 0 1 8 14 17 30 17 27 18 27 127 27 l110 0 0 -27 c0
-28 -73 -443 -129 -740 -100 -525 -194 -1075 -194 -1143 -1 -91 22 -150 58
-150 39 0 38 -7 160 681 47 266 97 540 110 609 30 152 121 667 130 733 l6 47
75 0 c87 0 81 15 63 -167 l-12 -113 -28 0 c-41 0 -83 -61 -100 -147 -20 -99
-20 -1134 0 -1213 32 -126 55 -148 158 -152 l78 -3 22 -61 c24 -67 45 -105 86
-154 25 -29 35 -34 77 -34 41 -1 54 4 80 29 35 33 81 116 100 183 l13 42 77 0
c69 0 80 3 102 25 14 13 33 48 44 77 17 49 19 94 22 608 3 579 1 627 -40 721
-16 38 -26 48 -51 54 -18 4 -35 7 -39 6 -4 0 -10 9 -12 22 -5 25 -26 225 -26
245 0 8 23 12 80 12 78 0 80 -1 80 -24 0 -13 36 -223 80 -467 211 -1174 270
-1497 282 -1527 13 -33 34 -47 61 -37 19 8 37 78 37 147 0 49 -85 544 -165
963 -42 220 -165 912 -165 929 0 7 16 13 38 14 20 1 67 4 104 8 60 5 67 4 77
-14 60 -113 127 -36 160 185 25 163 10 266 -44 321 -22 21 -25 34 -25 90 0 59
3 68 29 91 15 14 34 43 40 64 14 42 10 40 81 27 29 -5 114 -10 190 -11 113 0
144 3 176 18 70 33 102 114 75 186 -16 40 -69 94 -114 115 -82 38 -148 46
-245 33 -48 -7 -104 -19 -125 -27 -41 -15 -57 -12 -57 12 0 9 -10 38 -21 65
-20 46 -24 49 -59 49 -36 0 -38 -2 -61 -56 l-24 -56 -85 8 c-114 10 -296 9
-345 -2 -77 -17 -115 -63 -115 -139 0 -80 51 -149 139 -187 49 -21 205 -27
252 -10 13 5 48 12 77 16 45 6 52 4 52 -10 0 -22 48 -104 60 -104 6 0 10 -35
10 -78 0 -64 -3 -79 -18 -89 -34 -21 -52 -76 -52 -157 l0 -76 -278 0 -277 0
-32 54 c-51 84 -94 110 -176 107 -33 -1 -116 -79 -136 -128 l-13 -33 -279 0
-279 0 0 70 c0 80 -19 137 -55 164 -22 17 -25 26 -25 83 0 59 3 67 30 95 17
17 36 49 42 72 l11 42 41 -9 c23 -5 55 -13 72 -18 44 -13 220 -11 247 3 12 6
29 15 37 20 8 4 22 11 30 15 20 9 62 60 77 92 17 36 16 101 -2 135 -20 38 -50
59 -100 70 -50 11 -232 12 -345 2 l-85 -8 -25 53 c-23 49 -28 54 -61 57 -34 3
-38 0 -57 -41z m705 -1599 c49 -54 56 -116 22 -177 -28 -51 -54 -66 -89 -51
-33 14 -70 76 -70 118 0 67 44 132 90 132 15 0 36 -10 47 -22z m247 -343 c130
-121 153 -568 40 -776 -34 -62 -45 -71 -89 -71 -94 0 -165 186 -165 433 0 186
42 339 111 409 37 37 67 38 103 5z"/>
<path d="M1528 2782 l-28 -3 0 -657 c0 -404 4 -682 10 -721 18 -110 58 -161
125 -161 24 0 25 2 25 79 l0 80 -33 -6 c-64 -10 -61 -42 -67 711 l-5 681 -27
-3z"/>
<path d="M1760 2780 l-25 -6 -3 -634 c-3 -659 2 -770 37 -838 25 -49 55 -62
141 -62 l70 0 0 78 0 77 -82 0 c-78 0 -83 1 -95 25 -10 19 -13 122 -13 428 l0
402 95 0 95 0 0 80 0 80 -95 0 -95 0 -2 188 -3 188 -25 -6z"/>
<path d="M3110 2096 c0 -545 3 -702 14 -741 26 -98 49 -115 156 -115 l70 0 0
78 0 77 -82 0 -83 0 -12 35 c-12 36 -19 762 -7 805 5 18 12 20 94 17 l90 -3 0
81 0 81 -90 -3 c-68 -2 -91 0 -95 10 -3 8 -5 91 -5 187 l0 173 -25 4 -25 5 0
-691z"/>
<path d="M5550 2114 c0 -691 3 -754 41 -818 26 -44 56 -56 139 -56 l70 0 0 78
0 77 -82 0 c-78 0 -83 1 -95 25 -10 19 -13 122 -13 428 l0 402 95 0 95 0 0 80
0 80 -95 0 -95 0 0 188 0 187 -30 0 -30 0 0 -671z"/>
<path d="M2050 2705 l0 -76 28 3 c27 3 27 4 27 73 0 69 0 70 -27 73 l-28 3 0
-76z"/>
<path d="M235 2398 c-3 -7 -4 -269 -3 -583 3 -549 4 -570 22 -573 10 -2 22 2
27 10 5 7 9 229 9 494 0 360 3 483 12 492 8 8 47 12 109 12 78 0 99 -3 110
-17 11 -13 15 -108 17 -505 l3 -488 24 0 24 0 3 488 c2 397 6 492 17 505 11
14 33 17 112 17 67 0 100 -4 106 -12 4 -7 10 -233 13 -503 l5 -490 28 -3 27
-3 0 498 c0 509 -4 561 -40 620 -32 51 -48 53 -344 53 -212 0 -278 -3 -281
-12z"/>
<path d="M977 2388 c-9 -35 -6 -850 3 -954 9 -95 27 -147 64 -176 17 -15 43
-18 147 -18 147 0 171 8 194 65 30 76 36 186 33 645 l-3 455 -25 0 -25 0 -5
-490 c-3 -269 -9 -498 -14 -507 -7 -16 -25 -18 -146 -18 -116 0 -140 3 -151
17 -11 13 -15 111 -19 507 l-5 491 -21 3 c-16 2 -23 -3 -27 -20z"/>
<path d="M2050 1826 l0 -586 25 0 c17 0 26 7 30 23 3 12 4 274 3 582 l-3 560
-27 3 -28 3 0 -585z"/>
<path d="M2273 2381 c-57 -51 -58 -66 -58 -626 l0 -510 23 -3 22 -3 1 468 c0
335 4 478 12 503 l12 35 130 5 130 5 0 55 c0 102 2 100 -128 100 -110 0 -113
-1 -144 -29z"/>
<path d="M2668 2393 c-34 -22 -56 -71 -68 -158 -12 -86 -13 -725 -1 -817 11
-82 42 -151 77 -166 34 -16 252 -16 286 0 15 7 33 26 41 43 35 73 39 133 35
565 -3 416 -3 426 -25 470 -35 70 -60 80 -200 80 -92 0 -124 -4 -145 -17z
m302 -169 c6 -15 10 -184 10 -409 0 -350 -2 -385 -17 -404 -17 -21 -25 -22
-153 -19 -132 3 -135 3 -147 28 -17 33 -19 751 -2 799 l11 31 144 0 144 0 10
-26z"/>
<path d="M3484 2382 c-63 -57 -65 -80 -62 -579 3 -442 3 -449 26 -493 30 -61
54 -70 192 -70 138 0 162 9 193 70 22 44 22 53 25 485 4 498 1 525 -55 580
l-36 35 -126 0 c-125 0 -127 0 -157 -28z m307 -149 c11 -13 14 -91 14 -413 0
-322 -3 -400 -14 -413 -11 -14 -35 -17 -152 -17 -126 0 -139 2 -149 19 -15 30
-14 813 2 829 8 8 56 12 149 12 115 0 139 -3 150 -17z"/>
<path d="M4002 2379 c-56 -55 -57 -66 -57 -624 l0 -510 23 -3 22 -3 1 468 c0
335 4 478 12 503 l12 35 130 5 130 5 3 63 c2 38 -2 69 -9 78 -9 11 -39 14
-123 14 -112 0 -112 0 -144 -31z"/>
<path d="M4386 2376 c-46 -48 -56 -107 -55 -314 0 -139 4 -187 17 -222 34 -90
22 -85 192 -88 l151 -4 10 -26 c6 -15 9 -89 7 -170 -2 -114 -6 -145 -18 -152
-23 -15 -275 -13 -288 3 -6 6 -13 29 -17 50 -6 30 -11 37 -31 37 -22 0 -24 -4
-24 -46 0 -50 23 -139 43 -165 7 -9 22 -21 34 -27 30 -16 251 -16 285 0 61 29
81 121 75 350 -4 193 -14 237 -60 279 -31 29 -32 29 -170 29 -122 0 -138 2
-145 18 -4 9 -7 78 -7 153 0 101 4 140 14 152 11 14 35 17 152 17 153 0 159
-3 159 -69 0 -28 3 -31 30 -31 29 0 30 1 30 48 0 73 -27 150 -63 183 -31 29
-32 29 -161 29 l-129 0 -31 -34z"/>
<path d="M5097 2392 c-52 -32 -62 -82 -62 -322 0 -204 1 -217 23 -261 14 -29
31 -49 45 -53 12 -3 81 -6 153 -6 130 0 131 0 142 -25 7 -16 12 -78 12 -155 0
-77 -5 -139 -12 -155 l-11 -25 -137 0 c-152 0 -157 2 -167 64 -5 30 -10 36
-31 36 -24 0 -25 -1 -20 -69 6 -81 37 -153 74 -169 34 -16 252 -16 286 0 58
28 83 149 75 368 -6 168 -18 219 -60 260 l-31 30 -138 0 -138 0 -10 26 c-14
35 -13 244 1 283 l11 31 142 0 c138 0 143 -1 154 -22 6 -13 12 -34 14 -48 2
-19 10 -26 32 -28 l29 -4 -6 64 c-9 92 -23 132 -59 167 l-32 31 -125 0 c-101
0 -131 -4 -154 -18z"/>
<path d="M5924 2380 c-51 -49 -57 -101 -59 -500 -3 -483 7 -572 69 -622 17
-15 43 -18 147 -18 76 0 135 5 150 12 32 15 58 76 70 168 15 105 6 833 -11
888 -7 23 -26 56 -43 72 l-31 30 -131 0 -131 0 -30 -30z m314 -155 c16 -35 17
-759 1 -804 l-11 -31 -138 0 c-132 0 -140 1 -154 22 -14 19 -16 75 -16 405 0
269 3 390 12 408 l11 25 142 0 142 0 11 -25z"/>
<path d="M6458 2392 c-69 -42 -78 -124 -78 -677 0 -244 3 -450 6 -459 3 -9 17
-16 30 -16 l24 0 0 468 c0 293 4 481 11 505 l10 37 129 0 130 0 0 80 0 80
-117 0 c-93 0 -124 -4 -145 -18z"/>
<path d="M6850 2393 c-70 -48 -75 -87 -75 -588 1 -412 1 -421 23 -477 35 -86
42 -89 245 -86 l172 3 0 73 0 74 -176 -2 c-154 -1 -178 1 -190 16 -11 13 -14
54 -14 178 l0 161 190 5 190 5 0 245 c0 278 -8 331 -58 380 l-31 30 -126 0
c-102 0 -130 -3 -150 -17z m299 -165 c13 -25 12 -318 -1 -318 -5 0 -78 0 -163
0 l-155 0 0 139 c0 76 5 152 11 170 l11 31 142 0 c138 0 143 -1 155 -22z"/>
<path d="M4870 1318 c0 -77 1 -79 23 -76 21 3 22 8 22 77 0 70 -1 74 -22 76
-22 2 -23 -2 -23 -77z"/>
</g>
</svg>
